<svg xmlns="http://www.w3.org/2000/svg" viewBox="0 0 320 320"><title>inaminit-icon</title><path d="M32.11,184l5.54,1.28v3.55H11.11v-3.55L16.59,184V143.17l-5.15-1.28v-3.55H32.11Zm-16-63.28a7.82,7.82,0,0,1,2.44-5.85,8.07,8.07,0,0,1,5.83-2.36,8.16,8.16,0,0,1,8.21,8.21,8.07,8.07,0,0,1-2.36,5.83A7.83,7.83,0,0,1,24.33,129a8.21,8.21,0,0,1-8.27-8.28Z"/><path d="M62.57,142.75l3.65-1.88Q73.74,137,79.76,137q14,0,14,14.88V184l5,1.28v3.55H73.69v-3.55L78.2,184V154a11.48,11.48,0,0,0-1.91-7,6.43,6.43,0,0,0-5.45-2.52,19.79,19.79,0,0,0-8.16,1.83V184l4.62,1.28v3.55H42.21v-3.55L47.15,184V143.17l-4.94-1.28v-3.55H61.82Z"/><path d="M114.18,190.39a8.86,8.86,0,1,1,6.34-2.61A8.64,8.64,0,0,1,114.18,190.39Z"/><path d="M151.25,142.75l3.65-1.88q7.51-3.87,13.48-3.87,9,0,12,6.55Q191.42,137,199,137q13.65,0,13.65,14.88V184l5.05,1.28v3.55H192.6v-3.55l4.51-1.28V154a12.3,12.3,0,0,0-1.74-7,6,6,0,0,0-5.29-2.52,19.67,19.67,0,0,0-8.6,2.26,22.49,22.49,0,0,1,.54,5.21V184l5,1.28v3.55H162v-3.55L166.5,184V154a12.21,12.21,0,0,0-1.75-7,6,6,0,0,0-5.29-2.52,20,20,0,0,0-8.11,2.09V184l4.62,1.28v3.55H130.89v-3.55l4.94-1.28V143.17l-4.94-1.28v-3.55h19.6Z"/><path d="M243,184l5.54,1.28v3.55H222v-3.55l5.48-1.28V143.17l-5.16-1.28v-3.55H243Zm-16.06-63.28a7.83,7.83,0,0,1,2.45-5.85,8.07,8.07,0,0,1,5.83-2.36,8.16,8.16,0,0,1,8.21,8.21,8.11,8.11,0,0,1-2.36,5.83A7.83,7.83,0,0,1,235.2,129a8.23,8.23,0,0,1-8.28-8.28Z"/><path d="M273.44,142.75l3.65-1.88q7.52-3.87,13.54-3.87,14,0,14,14.88V184l5.05,1.28v3.55H284.56v-3.55l4.51-1.28V154a11.48,11.48,0,0,0-1.91-7,6.43,6.43,0,0,0-5.45-2.52,19.79,19.79,0,0,0-8.16,1.83V184l4.62,1.28v3.55H253.08v-3.55L258,184V143.17l-4.94-1.28v-3.55h19.61Z"/></svg>